# xmcd
#
# Track frame offsets:
#	150
#	21510
#	41105
#	72460
#	100120
#	122293
#	145217
#	166151
#	183735
#	209738
#	232438
#	255096
#	269174
#
# Disc length: 3781 seconds
#
# Revision: 1
# Processed by: cddbd v1.5PL3 Copyright (c) Steve Scherf et al.
# Submitted via: audiograbber 1.82.01
#
DISCID=ca0ec30d
DTITLE=Bonnie Raitt - 2003-06-16 - BBC Maida Vale Studios, London, UK,  16 June
DTITLE=2003
DYEAR=1900
DGENRE=
TTITLE0=Bonnie Raitt - Love Letter
TTITLE1=Bonnie Raitt - Fools Game
TTITLE2=Bonnie Raitt - Silver Lining
TTITLE3=Bonnie Raitt - Hear Me Lord
TTITLE4=Bonnie Raitt - Nick Of Time
TTITLE5=Bonnie Raitt - Love Me Like A Man
TTITLE6=Bonnie Raitt - Never Make Your Move Too Soon
TTITLE7=Bonnie Raitt - Something To Talk About
TTITLE8=Bonnie Raitt - I Can'T Make You Love Me
TTITLE9=Bonnie Raitt - Angel Of Montgomery
TTITLE10=Bonnie Raitt - Fundamental Good Man Good Woman
TTITLE11=Bonnie Raitt - Interview1
TTITLE12=Bonnie Raitt - Interview2
EXTD=
EXTT0=
EXTT1=
EXTT2=
EXTT3=
EXTT4=
EXTT5=
EXTT6=
EXTT7=
EXTT8=
EXTT9=
EXTT10=
EXTT11=
EXTT12=
PLAYORDER=
